<svg width="94" height="94" viewBox="0 0 94 94" fill="none" xmlns="http://www.w3.org/2000/svg">
<path d="M37.0876 65.874C36.7326 65.874 36.3749 65.7519 36.0831 65.5033L26.0408 56.9523C25.6944 56.657 25.4952 56.2258 25.4952 55.7702C25.4952 55.3156 25.6953 54.8843 26.0408 54.589L36.0831 46.038C36.7352 45.4821 37.7146 45.5609 38.2706 46.213C38.8257 46.8659 38.7478 47.8454 38.0948 48.4005L29.4408 55.7702L38.0948 63.14C38.7478 63.6959 38.8257 64.6754 38.2706 65.3275C37.9632 65.6886 37.5267 65.874 37.0876 65.874Z" fill="#282828"/>
<path d="M56.9128 65.874C56.4737 65.874 56.0372 65.6886 55.7307 65.3275C55.1747 64.6754 55.2535 63.6959 55.9056 63.14L64.5596 55.7702L55.9056 48.4005C55.2535 47.8454 55.1747 46.8659 55.7307 46.213C56.2858 45.5609 57.2661 45.4821 57.9173 46.038L67.9596 54.589C68.306 54.8843 68.5051 55.3156 68.5051 55.7702C68.5051 56.2258 68.306 56.657 67.9596 56.9523L57.9173 65.5033C57.6255 65.7519 57.2678 65.874 56.9128 65.874Z" fill="#282828"/>
<path d="M43.4447 72.2876C43.3382 72.2876 43.2308 72.2763 43.1226 72.2538C42.2843 72.0772 41.7473 71.2536 41.924 70.4153L48.1826 40.7C48.3593 39.8617 49.182 39.3247 50.0212 39.5014C50.8595 39.6781 51.3964 40.5008 51.2197 41.3399L44.9611 71.0553C44.8069 71.7862 44.1626 72.2876 43.4447 72.2876Z" fill="#282828"/>
<path d="M83.5802 88.4766H10.4198C4.67471 88.4766 0 83.8028 0 78.0568V15.9623C0 10.2172 4.67471 5.54248 10.4198 5.54248H83.5802C89.3253 5.54248 94 10.2172 94 15.9623V78.0568C94 83.8028 89.3253 88.4766 83.5802 88.4766ZM10.4198 8.64625C6.38594 8.64625 3.10377 11.9284 3.10377 15.9623V78.0568C3.10377 82.0907 6.38594 85.3729 10.4198 85.3729H83.5802C87.6141 85.3729 90.8962 82.0907 90.8962 78.0568V15.9623C90.8962 11.9284 87.6141 8.64625 83.5802 8.64625H10.4198Z" fill="#282828"/>
<path d="M92.4481 30.3923H1.55189C0.694539 30.3923 0 29.6978 0 28.8405C0 27.984 0.694539 27.2886 1.55189 27.2886H92.4481C93.3055 27.2886 94 27.984 94 28.8405C94 29.6978 93.3055 30.3923 92.4481 30.3923Z" fill="#282828"/>
<path d="M26.5154 22.9663C23.8082 22.9663 21.6042 20.7623 21.6042 18.0552C21.6042 15.3472 23.8082 13.144 26.5154 13.144C29.2234 13.144 31.4265 15.3472 31.4265 18.0552C31.4265 20.7623 29.2234 22.9663 26.5154 22.9663ZM26.5154 16.2478C25.5195 16.2478 24.708 17.0584 24.708 18.0552C24.708 19.052 25.5195 19.8625 26.5154 19.8625C27.5122 19.8625 28.3227 19.052 28.3227 18.0552C28.3227 17.0584 27.5122 16.2478 26.5154 16.2478Z" fill="#282828"/>
<path d="M11.4261 22.9189C8.71814 22.9189 6.51501 20.7158 6.51501 18.0078C6.51501 15.2998 8.71814 13.0967 11.4261 13.0967C14.1342 13.0967 16.3373 15.2998 16.3373 18.0078C16.3373 20.7158 14.1342 22.9189 11.4261 22.9189ZM11.4261 16.2005C10.4302 16.2005 9.61879 17.0119 9.61879 18.0078C9.61879 19.0046 10.4302 19.8152 11.4261 19.8152C12.4229 19.8152 13.2335 19.0046 13.2335 18.0078C13.2335 17.0119 12.4229 16.2005 11.4261 16.2005Z" fill="#282828"/>
<path d="M41.6047 23.0133C38.8976 23.0133 36.6945 20.8102 36.6945 18.1022C36.6945 15.395 38.8976 13.1919 41.6047 13.1919C44.3127 13.1919 46.5159 15.395 46.5159 18.1022C46.5159 20.8102 44.3127 23.0133 41.6047 23.0133ZM41.6047 16.2948C40.6088 16.2948 39.7982 17.1054 39.7982 18.1022C39.7982 19.0989 40.6088 19.9095 41.6047 19.9095C42.6015 19.9095 43.4121 19.0989 43.4121 18.1022C43.4121 17.1054 42.6015 16.2948 41.6047 16.2948Z" fill="#282828"/>
</svg>
