<svg version="1.2" baseProfile="tiny-ps" xmlns="http://www.w3.org/2000/svg" viewBox="0 0 257 292" width="257" height="292">
	<title>javascript-seeklogo</title>
	<style>
		tspan { white-space:pre }
		.s0 { fill: #1a2125 } 
		.s1 { opacity: 1;fill: none } 
		.s2 { fill: #212a2f } 
	</style>
	<g id="g5193">
		<path id="path5113" fill-rule="evenodd" class="s0" d="m23.79 262.01l-23.8-262l256.4 0.1l-23.6 261.7l-104.8 29.6l-104.2-29.4zm209.6-238.7h-105l0.8 247.5l84.3-23.1l19.9-224.4zm-140.3 32.9l-0.3 134.3l-49.5-13.5l0.1 30.7l75.2 20.3v-171.8l-25.5 0z" />
		<path id="path5159" class="s1" d="m110.19 225.51c-3.3-1-19.6-5.4-36.2-9.9l-30.1-8.1v-15.1c0-14.8 0-15.1 1.5-14.6c0.8 0.3 11.8 3.3 24.4 6.8l22.9 6.3l0.2-67l0.2-67h25v85.2c0 67.7-0.2 85.2-0.9 85.2c-0.5-0.1-3.7-0.9-7-1.8l0 0z" />
		<path id="path5157" class="s1" d="m43.39 207.72l-0.1-30.7c0 0 31.6 8.9 49.5 13.5l0.3-134.2h25.5v171.7l-75.2-20.3h0z" />
		<path id="path5117" fill-rule="evenodd" class="s2" d="m128.39 23.21h105l-19.9 224.4l-85.1 23.1v-247.5zm79.7 186.8l6.9-83.9l-51 5.7v-44.8l54.4-0.2l2.2-30.6l-82.1 0.4l1.1 111.4l49.6-8.5l-0.7 24.8l-50 13.3l0.5 30.4l69.1-18z" />
	</g>
</svg>