<svg version="1.2" baseProfile="tiny-ps" xmlns="http://www.w3.org/2000/svg" viewBox="0 0 500 394" width="500" height="394">
	<title>per3-svg</title>
	<style>
		tspan { white-space:pre }
		.s0 { fill: #ebebeb } 
		.s1 { fill: #e6e6e6 } 
		.s2 { fill: #f0f0f0 } 
		.s3 { fill: #f5f5f5 } 
		.s4 { fill: #ffffff } 
		.s5 { fill: #e0e0e0 } 
		.s6 { fill: #f4b11b } 
		.s7 { opacity: .4;fill: #ffffff } 
		.s8 { fill: #263238 } 
		.s9 { opacity: .2;fill: #ffffff } 
		.s10 { fill: #407bff } 
		.s11 { fill: none;stroke: #f4b11b;stroke-linecap:round;stroke-linejoin:round;stroke-width: 6 } 
		.s12 { fill: #f4b01b } 
		.s13 { opacity: .2;fill: #000000 } 
		.s14 { fill: #ffb573 } 
		.s15 { fill: none;stroke: #f4b11b;stroke-width: 2 } 
		.s16 { fill: #a02724 } 
		.s17 { fill: none;stroke: #ffffff;stroke-width: 2 } 
		.s18 { fill: none;stroke: #ffffff;stroke-linecap:round;stroke-linejoin:round;stroke-width: 2 } 
	</style>
	<path id="Layer" class="s0" d="m500 329.62h-500v-0.25h500v0.25z" />
	<path id="Layer" class="s0" d="m173.22 336.04h-23.18v-0.25h23.18v0.25z" />
	<path id="Layer" class="s0" d="m458.77 341.43h-56.67v-0.25h56.67v0.25z" />
	<path id="Layer" class="s0" d="m99.39 341.43h-56.67v-0.25h56.67v0.25z" />
	<path id="Layer" fill-rule="evenodd" class="s0" d="m237 284.5h-193.09c-1.51 0-2.96-0.61-4.03-1.69c-1.07-1.08-1.67-2.54-1.67-4.06v-273.06c0.01-1.51 0.62-2.96 1.69-4.03c1.07-1.07 2.51-1.67 4.01-1.67h193.09c1.51 0 2.97 0.61 4.04 1.68c1.07 1.08 1.67 2.54 1.67 4.06v273.01c0 1.52-0.6 2.99-1.67 4.06c-1.07 1.08-2.52 1.68-4.04 1.68zm-193.09-284.3c-1.45 0-2.83 0.58-3.85 1.61c-1.02 1.03-1.6 2.43-1.6 3.88v273.06c0 1.46 0.57 2.85 1.6 3.88c1.02 1.03 2.41 1.61 3.85 1.61h193.09c1.45 0 2.83-0.59 3.86-1.61c1.02-1.03 1.6-2.42 1.6-3.88v-273.06c0-1.46-0.58-2.85-1.6-3.88c-1.02-1.03-2.41-1.61-3.86-1.61h-193.09z" />
	<path id="Layer" fill-rule="evenodd" class="s0" d="m453.31 284.5h-193.1c-1.51-0.01-2.96-0.61-4.03-1.69c-1.07-1.08-1.67-2.53-1.68-4.06v-273.06c0.01-1.51 0.62-2.96 1.69-4.03c1.07-1.07 2.51-1.66 4.02-1.67h193.1c1.5 0.01 2.94 0.61 4.01 1.67c1.07 1.07 1.67 2.51 1.68 4.02v273.06c0 0.75-0.14 1.5-0.43 2.2c-0.29 0.7-0.7 1.33-1.23 1.86c-0.53 0.53-1.16 0.96-1.85 1.25c-0.69 0.29-1.43 0.44-2.18 0.44zm-193.1-284.3c-1.45 0.01-2.83 0.59-3.86 1.61c-1.02 1.03-1.6 2.42-1.61 3.88v273.06c0.01 1.46 0.58 2.85 1.61 3.88c1.02 1.03 2.41 1.61 3.86 1.61h193.1c1.45 0 2.83-0.59 3.86-1.61c1.02-1.03 1.6-2.42 1.6-3.88v-273.06c-0.01-1.46-0.58-2.85-1.6-3.88c-1.02-1.03-2.41-1.61-3.86-1.61h-193.1z" />
	<path id="Layer" class="s0" d="m450.64 360.71h-21.6v-0.25h21.6v0.25z" />
	<path id="Layer" class="s1" d="m460.6 267.06c-5.58 8.84-23.65 13.81-26.33 22.3c-0.21 15.99-0.34 28.07-0.29 29.91l-1.07-0.07c-0.14-7.15-0.02-28.11 0.25-51.84c-1.13-2.16-3.1-5.82-3.69-6.83c-2.59-4.17-13.59-4.16-18.59-10.87c-6.18-8.38-9.12-20.2-7.18-26.49c1.94-6.29 18.28 4.99 22.28 14.14c6.71 15.35 5.59 16.2 7.22 26.26c0.23-19.41 0.56-40.33 0.91-56.81c-3-8.14-23.79-18.23-28-28.35c-4.76-11.4-7.97-27.59-2-29.17c5.97-1.58 12.23 10.64 19.49 20.7c5.89 8.17 9.07 16.94 10.67 30.02c0.3-12.17 0.62-20.89 0.93-23.24c1.49-11.77-0.77-25.34 4.49-39.51c5.26-14.16 15.18-28.45 20.79-22.41c5.36 5.74 6.6 21.29-1.05 34.27c-5.24 8.89-15.72 16.18-20.44 22.29c-0.55 0.72-1.51 2.07-2.33 3.24c-0.23 2.36-0.75 10.07-1.16 34.02c-0.13 7.38-0.29 16.9-0.44 27.27c1.41-14.44 5.18-28.55 11.17-41.75c2.2-4.93 21.77-49.07 27.62-42.5c6.78 7.5 6.86 28.32-1.14 42.2c-6.08 10.6-23.68 16.84-31.08 33.62c-2.23 4.98-5.31 11.34-6.66 14.08c-0.17 11.04-0.34 22.72-0.49 33.62c1.26-9.54 3.98-16.65 8.43-23.3c6.65-9.99 23.14-18.2 25.23-12.16c2.5 7.24-1.69 18.04-7.54 27.34z" />
	<path id="Layer" class="s1" d="m451.15 329.91h-34.66c-0.91-0.01-1.79-0.33-2.5-0.92c-0.7-0.58-1.19-1.39-1.37-2.29l-2.47-12.21h47.4l-2.46 12.21c-0.19 0.91-0.68 1.73-1.4 2.31c-0.72 0.59-1.61 0.9-2.54 0.9z" />
	<path id="Layer" class="s2" d="m458.51 319.21h-49.38c-0.57 0-1.13-0.21-1.56-0.59c-0.43-0.38-0.7-0.91-0.76-1.48l-1-9.06c-0.07-0.61 0.1-1.22 0.48-1.7c0.37-0.48 0.92-0.8 1.52-0.88h51.68c0.31 0 0.61 0.06 0.89 0.17c0.28 0.12 0.54 0.29 0.76 0.5c0.22 0.22 0.39 0.47 0.51 0.76c0.12 0.29 0.18 0.59 0.18 0.9c0 0.09 0 0.18 0 0.27l-1 9.05c-0.06 0.57-0.33 1.1-0.76 1.48c-0.43 0.38-0.98 0.59-1.56 0.58z" />
	<path id="Layer" class="s1" d="m122.71 111.31h-69.8v-77.1h69.8v77.1z" />
	<path id="Layer" class="s3" d="m128.68 111.31h-74.84v-77.1h74.84v77.1z" />
	<path id="Layer" class="s4" d="m123.91 106.51h-65.3v-67.49h65.3v67.49z" />
	<path id="Layer" class="s3" d="m81.48 96.77c-3.73-3.76-5.83-8.85-5.83-14.16c0-5.31 2.1-10.41 5.83-14.16l19.52-19.68c3.73 3.76 5.83 8.85 5.83 14.16c0 5.31-2.1 10.41-5.83 14.16l-19.52 19.68z" />
	<path id="Layer" class="s1" d="m101.45 205.91h-47.51v-53.94h47.51v53.94z" />
	<path id="Layer" class="s3" d="m108.32 205.91h-53.22v-53.94h53.22v53.94z" />
	<path id="Layer" class="s4" d="m102.84 200.4h-42.24v-42.91h42.24v42.91z" />
	<path id="Layer" class="s3" d="m85.52 170.23l4.84 4.87c2.11 2.12 2.11 5.56 0 7.68l-4.84 4.87c-2.11 2.12-5.53 2.12-7.64 0l-4.84-4.87c-2.11-2.12-2.11-5.56 0-7.68l4.84-4.87c2.11-2.12 5.53-2.12 7.64 0z" />
	<path id="Layer" class="s1" d="m205.86 329.21h-21.65v-109.87h21.65v109.87z" />
	<path id="Layer" class="s2" d="m184.21 329.22h-93.41v-109.87h93.41v109.87z" />
	<path id="Layer" class="s1" d="m175.7 286.94h-76.39v-25.32h76.39v25.32z" />
	<path id="Layer" class="s1" d="m175.7 317.92h-76.39v-25.32h76.39v25.32z" />
	<path id="Layer" class="s2" d="m127.43 264.4c-0.39-0.4-0.61-0.93-0.61-1.5c0-0.56 0.22-1.1 0.61-1.5c0.39-0.4 0.93-0.62 1.49-0.63h17.16c0.56 0 1.09 0.23 1.49 0.63c0.4 0.4 0.62 0.93 0.62 1.5c-0.01 0.56-0.23 1.1-0.62 1.5c-0.39 0.4-0.93 0.62-1.49 0.63h-17.16c-0.56 0-1.09-0.23-1.49-0.63z" />
	<path id="Layer" class="s1" d="m175.7 255.98h-76.39v-25.32h76.39v25.32z" />
	<path id="Layer" class="s2" d="m127.43 233.42c-0.39-0.4-0.61-0.93-0.61-1.5c0-0.56 0.22-1.1 0.61-1.5c0.39-0.4 0.93-0.62 1.49-0.63h17.16c0.56 0.01 1.09 0.23 1.49 0.63c0.39 0.4 0.62 0.93 0.62 1.5c0 0.56-0.23 1.1-0.62 1.5c-0.4 0.4-0.93 0.62-1.49 0.63h-17.16c-0.56 0-1.09-0.23-1.49-0.63z" />
	<path id="Layer" class="s2" d="m128.11 295.83c-0.26-0.11-0.49-0.27-0.68-0.46c-0.2-0.2-0.35-0.43-0.45-0.69c-0.1-0.26-0.16-0.53-0.16-0.81c0-0.28 0.05-0.55 0.16-0.81c0.11-0.26 0.26-0.49 0.46-0.69c0.2-0.2 0.43-0.35 0.68-0.46c0.25-0.11 0.53-0.16 0.8-0.16h17.16c0.56 0 1.09 0.22 1.49 0.62c0.4 0.4 0.62 0.93 0.62 1.5c0 0.56-0.22 1.11-0.62 1.51c-0.4 0.4-0.93 0.62-1.49 0.63h-17.16c-0.28 0-0.55-0.06-0.81-0.17z" />
	<path id="Layer" class="s1" d="m184.21 219.35h-96.3v-5.78h96.3v5.78z" />
	<path id="Layer" class="s5" d="m208.88 219.36h-24.67v-5.77h24.67v5.77z" />
	<path id="Layer" class="s3" d="m80.83 380.09c0-7.68 78.43-13.9 175.17-13.9c96.74 0 175.17 6.23 175.17 13.9c0 7.68-78.43 13.9-175.17 13.9c-96.74 0-175.17-6.22-175.17-13.9z" />
	<path id="Layer" fill-rule="evenodd" class="s6" d="m408.37 80.01v32.66l-10.69 5.76c-1.43 4.8-3.33 9.44-5.68 13.86l3.6 11.67l-23 23.14l-11.64-3.57c-4.39 2.38-9 4.3-13.78 5.74l-5.7 10.79h-32.48l-5.7-10.81c-4.78-1.43-9.4-3.35-13.79-5.72l-11.63 3.57l-23-23.14l3.56-11.69c-2.37-4.41-4.28-9.06-5.71-13.86l-10.73-5.74v-32.63l10.69-5.74c1.43-4.81 3.34-9.45 5.7-13.87l-3.56-11.7l23-23.14l11.63 3.59c4.4-2.39 9.04-4.32 13.83-5.75l5.71-10.79h32.43l5.7 10.79c4.78 1.43 9.4 3.36 13.78 5.75l11.64-3.6l22.94 23.14l-3.55 11.69c2.35 4.42 4.26 9.07 5.7 13.87l10.73 5.73zm-41.54 58.23c11.04-11.11 17.25-26.18 17.26-41.89c0-11.72-3.46-23.17-9.93-32.91c-6.47-9.74-15.67-17.34-26.43-21.82c-10.76-4.48-22.6-5.66-34.02-3.37c-11.42 2.28-21.92 7.93-30.15 16.21c-8.24 8.28-13.84 18.84-16.12 30.33c-2.27 11.49-1.11 23.4 3.35 34.23c4.46 10.83 12 20.08 21.69 26.59c9.68 6.51 21.07 9.99 32.71 9.99c15.62 0 30.6-6.24 41.64-17.35z" />
	<path id="Layer" fill-rule="evenodd" class="s6" d="m344.57 49.28c6.14 2.56 11.73 6.31 16.43 11.04c4.71 4.73 8.44 10.35 10.98 16.53c2.55 6.18 3.86 12.81 3.86 19.5c0 10.07-2.97 19.92-8.53 28.3c-5.56 8.38-13.47 14.91-22.72 18.76c-9.25 3.86-19.43 4.87-29.26 2.9c-9.82-1.96-18.84-6.81-25.93-13.94c-7.08-7.12-11.91-16.2-13.86-26.08c-1.96-9.88-0.96-20.12 2.87-29.43c3.83-9.31 10.32-17.27 18.64-22.87c8.33-5.6 18.11-8.59 28.13-8.6c6.65 0 13.24 1.31 19.39 3.87zm11.62 78.26c8.23-8.28 12.86-19.5 12.88-31.2c0-8.73-2.58-17.27-7.4-24.53c-4.83-7.26-11.68-12.92-19.7-16.26c-8.02-3.34-16.85-4.21-25.37-2.51c-8.51 1.71-16.34 5.91-22.47 12.09c-6.14 6.18-10.32 14.05-12.01 22.61c-1.69 8.57-0.82 17.45 2.5 25.52c3.33 8.07 8.95 14.97 16.17 19.82c7.22 4.85 15.71 7.44 24.39 7.44c11.63-0.03 22.78-4.69 31.01-12.97z" />
	<path id="Layer" fill-rule="evenodd" class="s7" d="m408.37 80.01v32.66l-10.69 5.76c-1.43 4.8-3.33 9.44-5.68 13.86l3.6 11.67l-23 23.14l-11.64-3.57c-4.39 2.38-9 4.3-13.78 5.74l-5.7 10.79h-32.48l-5.7-10.81c-4.78-1.43-9.4-3.35-13.79-5.72l-11.63 3.57l-23-23.14l3.56-11.69c-2.37-4.41-4.28-9.06-5.71-13.86l-10.73-5.74v-32.63l10.69-5.74c1.43-4.81 3.34-9.45 5.7-13.87l-3.56-11.7l23-23.14l11.63 3.59c4.4-2.39 9.04-4.32 13.83-5.75l5.71-10.79h32.43l5.7 10.79c4.78 1.43 9.4 3.36 13.78 5.75l11.64-3.6l22.94 23.14l-3.55 11.69c2.35 4.42 4.26 9.07 5.7 13.87l10.73 5.73zm-41.54 58.23c11.04-11.11 17.25-26.18 17.26-41.89c0-11.72-3.46-23.17-9.93-32.91c-6.47-9.74-15.67-17.34-26.43-21.82c-10.76-4.48-22.6-5.66-34.02-3.37c-11.42 2.28-21.92 7.93-30.15 16.21c-8.24 8.28-13.84 18.84-16.12 30.33c-2.27 11.49-1.11 23.4 3.35 34.23c4.46 10.83 12 20.08 21.69 26.59c9.68 6.51 21.07 9.99 32.71 9.99c15.62 0 30.6-6.24 41.64-17.35z" />
	<path id="Layer" fill-rule="evenodd" class="s7" d="m344.57 49.28c6.14 2.56 11.73 6.31 16.43 11.04c4.71 4.73 8.44 10.35 10.98 16.53c2.55 6.18 3.86 12.81 3.86 19.5c0 10.07-2.97 19.92-8.53 28.3c-5.56 8.38-13.47 14.91-22.72 18.76c-9.25 3.86-19.43 4.87-29.26 2.9c-9.82-1.96-18.84-6.81-25.93-13.94c-7.08-7.12-11.91-16.2-13.86-26.08c-1.96-9.88-0.96-20.12 2.87-29.43c3.83-9.31 10.32-17.27 18.64-22.87c8.33-5.6 18.11-8.59 28.13-8.6c6.65 0 13.24 1.31 19.39 3.87zm11.62 78.26c8.23-8.28 12.86-19.5 12.88-31.2c0-8.73-2.58-17.27-7.4-24.53c-4.83-7.26-11.68-12.92-19.7-16.26c-8.02-3.34-16.85-4.21-25.37-2.51c-8.51 1.71-16.34 5.91-22.47 12.09c-6.14 6.18-10.32 14.05-12.01 22.61c-1.69 8.57-0.82 17.45 2.5 25.52c3.33 8.07 8.95 14.97 16.17 19.82c7.22 4.85 15.71 7.44 24.39 7.44c11.63-0.03 22.78-4.69 31.01-12.97z" />
	<path id="Layer" fill-rule="evenodd" class="s8" d="m198.95 142v17.31l-5.69 3.02c-0.75 2.55-1.76 5.01-3 7.35l1.89 6.21l-12.19 12.26l-6.17-1.9c-2.33 1.24-4.78 2.26-7.31 3.02l-3 5.68h-17.24l-3-5.68c-2.53-0.76-4.98-1.77-7.31-3.02l-6.17 1.9l-12.18-12.26l1.88-6.21c-1.24-2.34-2.25-4.81-3-7.35l-5.7-3.02v-17.34l5.7-3.02c0.76-2.54 1.76-5.01 3-7.35l-1.88-6.21l12.18-12.26l6.17 1.9c2.33-1.25 4.78-2.26 7.31-3.02l3-5.69h17.28l3 5.69c2.53 0.76 4.98 1.77 7.31 3.02l6.17-1.9l12.21 12.26l-1.89 6.21c1.24 2.34 2.25 4.81 3 7.35l5.63 3.05zm-26.78 26.08c4.59-4.62 7.17-10.88 7.18-17.42c0-4.87-1.44-9.64-4.13-13.69c-2.69-4.05-6.52-7.21-10.99-9.07c-4.47-1.86-9.4-2.35-14.15-1.4c-4.75 0.95-9.11 3.3-12.54 6.74c-3.42 3.45-5.76 7.84-6.7 12.61c-0.94 4.78-0.46 9.73 1.39 14.23c1.85 4.5 4.99 8.35 9.02 11.06c4.03 2.71 8.76 4.15 13.61 4.15c6.49 0 12.72-2.6 17.31-7.22z" />
	<path id="Layer" fill-rule="evenodd" class="s6" d="m198.95 142v17.31l-5.69 3.02c-0.75 2.55-1.76 5.01-3 7.35l1.89 6.21l-12.19 12.26l-6.17-1.9c-2.33 1.24-4.78 2.26-7.31 3.02l-3 5.68h-17.24l-3-5.68c-2.53-0.76-4.98-1.77-7.31-3.02l-6.17 1.9l-12.18-12.26l1.88-6.21c-1.24-2.34-2.25-4.81-3-7.35l-5.7-3.02v-17.34l5.7-3.02c0.76-2.54 1.76-5.01 3-7.35l-1.88-6.21l12.18-12.26l6.17 1.9c2.33-1.25 4.78-2.26 7.31-3.02l3-5.69h17.28l3 5.69c2.53 0.76 4.98 1.77 7.31 3.02l6.17-1.9l12.21 12.26l-1.89 6.21c1.24 2.34 2.25 4.81 3 7.35l5.63 3.05zm-26.78 26.08c4.59-4.62 7.17-10.88 7.18-17.42c0-4.87-1.44-9.64-4.13-13.69c-2.69-4.05-6.52-7.21-10.99-9.07c-4.47-1.86-9.4-2.35-14.15-1.4c-4.75 0.95-9.11 3.3-12.54 6.74c-3.42 3.45-5.76 7.84-6.7 12.61c-0.94 4.78-0.46 9.73 1.39 14.23c1.85 4.5 4.99 8.35 9.02 11.06c4.03 2.71 8.76 4.15 13.61 4.15c6.49 0 12.72-2.6 17.31-7.22z" />
	<path id="Layer" class="s8" d="m160.6 144.89c1.52 1.53 2.38 3.61 2.38 5.78c0 1.62-0.48 3.19-1.37 4.54c-0.89 1.34-2.16 2.39-3.64 3.01c-1.48 0.62-3.12 0.78-4.69 0.46c-1.58-0.32-3.02-1.09-4.16-2.24c-1.14-1.14-1.91-2.6-2.22-4.18c-0.31-1.58-0.15-3.23 0.46-4.72c0.61-1.49 1.66-2.77 2.99-3.67c1.34-0.9 2.91-1.38 4.51-1.38c2.15 0 4.22 0.86 5.74 2.39z" />
	<path id="Layer" fill-rule="evenodd" class="s7" d="m198.95 142v17.31l-5.69 3.02c-0.75 2.55-1.76 5.01-3 7.35l1.89 6.21l-12.19 12.26l-6.17-1.9c-2.33 1.24-4.78 2.26-7.31 3.02l-3 5.68h-17.24l-3-5.68c-2.53-0.76-4.98-1.77-7.31-3.02l-6.17 1.9l-12.18-12.26l1.88-6.21c-1.24-2.34-2.25-4.81-3-7.35l-5.7-3.02v-17.34l5.7-3.02c0.76-2.54 1.76-5.01 3-7.35l-1.88-6.21l12.18-12.26l6.17 1.9c2.33-1.25 4.78-2.26 7.31-3.02l3-5.69h17.28l3 5.69c2.53 0.76 4.98 1.77 7.31 3.02l6.17-1.9l12.21 12.26l-1.89 6.21c1.24 2.34 2.25 4.81 3 7.35l5.63 3.05zm-26.78 26.08c4.59-4.62 7.17-10.88 7.18-17.42c0-4.87-1.44-9.64-4.13-13.69c-2.69-4.05-6.52-7.21-10.99-9.07c-4.47-1.86-9.4-2.35-14.15-1.4c-4.75 0.95-9.11 3.3-12.54 6.74c-3.42 3.45-5.76 7.84-6.7 12.61c-0.94 4.78-0.46 9.73 1.39 14.23c1.85 4.5 4.99 8.35 9.02 11.06c4.03 2.71 8.76 4.15 13.61 4.15c6.49 0 12.72-2.6 17.31-7.22z" />
	<path id="Layer" class="s9" d="m160.6 144.89c1.52 1.53 2.38 3.61 2.38 5.78c0 1.62-0.48 3.19-1.37 4.54c-0.89 1.34-2.16 2.39-3.64 3.01c-1.48 0.62-3.12 0.78-4.69 0.46c-1.58-0.32-3.02-1.09-4.16-2.24c-1.14-1.14-1.91-2.6-2.22-4.18c-0.31-1.58-0.15-3.23 0.46-4.72c0.61-1.49 1.66-2.77 2.99-3.67c1.34-0.9 2.91-1.38 4.51-1.38c2.15 0 4.22 0.86 5.74 2.39z" />
	<path id="Layer" fill-rule="evenodd" class="s8" d="m209 123.23l-6.6-2.74l-0.24-2.49c-0.62-0.52-1.19-1.1-1.72-1.71l-2.46-0.25l-2.73-6.63l1.59-1.9c-0.07-0.81-0.07-1.63 0-2.44l-1.59-1.89l2.75-6.59l2.46-0.24c0.53-0.63 1.12-1.23 1.74-1.77l0.24-2.48l6.6-2.74l1.88 1.59c0.81-0.06 1.62-0.06 2.43 0l1.88-1.59l6.6 2.74l0.23 2.48c0.61 0.53 1.19 1.11 1.72 1.72l2.46 0.24l2.72 6.63l-1.58 1.89c0.07 0.81 0.07 1.63 0 2.44l1.58 1.9l-2.72 6.63l-2.46 0.25c-0.53 0.62-1.1 1.19-1.72 1.72l-0.23 2.48l-6.6 2.74l-1.88-1.59c-0.81 0.06-1.62 0.06-2.42 0l-1.93 1.6zm4.78-3.02l1.71 1.42l5-2.08l0.2-2.22l0.24-0.18c0.7-0.57 1.35-1.21 1.93-1.9l0.18-0.23l2.21-0.21l2.07-5.03l-1.32-1.77v-0.29c0.09-0.91 0.09-1.83 0-2.75v-0.33l1.41-1.73l-2.07-5.03l-2.2-0.2l-0.19-0.24c-0.59-0.68-1.24-1.3-1.95-1.85l-0.24-0.19l-0.2-2.22l-5-2.08l-1.74 1.48h-0.29c-0.91-0.1-1.82-0.1-2.73 0h-0.3l-1.71-1.43l-5 2.08l-0.21 2.22l-0.22 0.19c-0.71 0.56-1.36 1.2-1.94 1.89l-0.19 0.24l-2.21 0.2l-2.09 5.03l1.42 1.72v0.29c-0.1 0.91-0.1 1.83 0 2.75v0.3l-1.42 1.61l2.08 5.03l2.2 0.21l0.19 0.23c0.58 0.71 1.22 1.36 1.93 1.94l0.23 0.18l0.21 2.23l5 2.08l1.72-1.42h0.29c0.91 0.09 1.82 0.09 2.73 0l0.27 0.06z" />
	<path id="Layer" class="s8" d="m215.09 113.4c-1.4 0.59-2.94 0.74-4.43 0.44c-1.49-0.3-2.85-1.03-3.93-2.11c-1.07-1.08-1.8-2.45-2.1-3.95c-0.3-1.5-0.14-3.05 0.43-4.45c0.58-1.41 1.56-2.61 2.82-3.46c1.26-0.85 2.74-1.3 4.26-1.3c1.51 0 3 0.45 4.26 1.3c1.26 0.85 2.24 2.05 2.82 3.46c0.39 0.93 0.59 1.93 0.59 2.94c0 1.01-0.2 2.01-0.58 2.95c-0.38 0.93-0.95 1.78-1.66 2.5c-0.71 0.72-1.55 1.28-2.48 1.67h-0.01z" />
	<path id="Layer" class="s10" d="m160 107.5c-0.12 0-0.24-0.05-0.33-0.14c-0.09-0.09-0.14-0.21-0.14-0.33v-2.4c0-0.13 0.05-0.25 0.14-0.33c0.09-0.09 0.21-0.14 0.33-0.14c0.12 0 0.24 0.05 0.33 0.14c0.09 0.09 0.14 0.21 0.14 0.33v2.36c0.01 0.07 0 0.13-0.02 0.19c-0.02 0.06-0.05 0.12-0.1 0.17c-0.04 0.05-0.1 0.09-0.16 0.11c-0.06 0.03-0.12 0.04-0.19 0.04z" />
	<path id="Layer" class="s6" d="m160 100.39c-0.12 0-0.24-0.05-0.33-0.14c-0.09-0.09-0.14-0.21-0.14-0.33v-4.75c0-0.13 0.05-0.25 0.14-0.33c0.09-0.09 0.21-0.14 0.33-0.14c0.12 0 0.24 0.05 0.33 0.14c0.09 0.09 0.14 0.21 0.14 0.33v4.75c0 0.13-0.05 0.25-0.14 0.33c-0.09 0.09-0.21 0.14-0.33 0.14zm0-9.5c-0.12 0-0.24-0.05-0.33-0.14c-0.09-0.09-0.14-0.21-0.14-0.33v-4.75c0-0.13 0.05-0.25 0.14-0.33c0.09-0.09 0.21-0.14 0.33-0.14c0.12 0 0.24 0.05 0.33 0.14c0.09 0.09 0.14 0.21 0.14 0.33v4.75c0 0.13-0.05 0.25-0.14 0.33c-0.09 0.09-0.21 0.14-0.33 0.14zm0-9.49c-0.13 0-0.25-0.05-0.33-0.15c-0.09-0.09-0.14-0.21-0.14-0.34v-4.74c0-0.13 0.05-0.25 0.14-0.33c0.09-0.09 0.21-0.14 0.33-0.14c0.12 0 0.24 0.05 0.33 0.14c0.09 0.09 0.14 0.21 0.14 0.33v4.74c0 0.13-0.05 0.25-0.14 0.34c-0.09 0.09-0.21 0.14-0.33 0.15zm0-9.53c-0.06 0-0.12 0-0.18-0.02c-0.06-0.02-0.11-0.05-0.15-0.09c-0.04-0.04-0.08-0.09-0.1-0.15c-0.02-0.06-0.04-0.12-0.04-0.18v-0.07c0-1.62 0.27-3.22 0.79-4.75c0.04-0.12 0.13-0.21 0.24-0.27c0.11-0.05 0.24-0.06 0.36-0.02c0.06 0.02 0.11 0.05 0.16 0.09c0.05 0.04 0.09 0.09 0.11 0.15c0.03 0.06 0.04 0.12 0.05 0.18c0 0.06-0.01 0.13-0.03 0.18c-0.49 1.43-0.74 2.93-0.74 4.44c0 0.13-0.05 0.25-0.13 0.35c-0.09 0.1-0.21 0.15-0.34 0.16zm3-8.77c-0.11 0-0.21-0.03-0.29-0.1c-0.05-0.04-0.09-0.09-0.12-0.14c-0.03-0.05-0.05-0.11-0.06-0.18c-0.01-0.06 0-0.12 0.01-0.18c0.02-0.06 0.04-0.12 0.08-0.16c1.02-1.28 2.24-2.38 3.62-3.25c0.05-0.03 0.11-0.06 0.17-0.07c0.06-0.01 0.12-0.01 0.18 0.01c0.06 0.01 0.12 0.04 0.17 0.08c0.05 0.04 0.09 0.08 0.13 0.14c0.03 0.05 0.06 0.11 0.07 0.17c0.01 0.06 0.01 0.12-0.01 0.19c-0.01 0.06-0.04 0.12-0.08 0.17c-0.04 0.05-0.08 0.09-0.13 0.13c-1.29 0.81-2.43 1.83-3.38 3.02c-0.07 0.1-0.17 0.16-0.29 0.19h-0.08zm7.85-4.93c-0.12 0-0.23-0.04-0.32-0.12c-0.09-0.08-0.14-0.19-0.15-0.3c-0.01-0.12 0.02-0.23 0.09-0.33c0.07-0.09 0.17-0.16 0.28-0.18c1.02-0.23 2.07-0.34 3.12-0.34h1.67c0.06 0 0.12 0.01 0.18 0.04c0.06 0.02 0.11 0.06 0.15 0.1c0.04 0.04 0.08 0.1 0.1 0.15c0.02 0.06 0.04 0.12 0.04 0.18c0 0.06-0.01 0.12-0.04 0.18c-0.02 0.06-0.06 0.11-0.1 0.15c-0.04 0.04-0.1 0.08-0.15 0.1c-0.06 0.02-0.12 0.04-0.18 0.04h-1.54c-0.98 0-1.96 0.11-2.92 0.32l-0.23 0.01zm80.19-0.33h-4.64c-0.13 0-0.24-0.05-0.33-0.14c-0.09-0.09-0.14-0.21-0.14-0.33c0-0.13 0.05-0.25 0.14-0.33c0.09-0.09 0.21-0.14 0.33-0.14h4.72c0.06 0 0.12 0.01 0.18 0.04c0.06 0.02 0.11 0.06 0.15 0.1c0.04 0.04 0.08 0.1 0.1 0.15c0.02 0.06 0.03 0.12 0.03 0.18c0 0.06-0.01 0.12-0.03 0.18c-0.03 0.06-0.06 0.11-0.1 0.15c-0.04 0.04-0.1 0.08-0.15 0.1c-0.06 0.02-0.12 0.04-0.18 0.04h-0.08zm-9.44 0h-4.6c-0.06 0-0.12-0.01-0.18-0.04c-0.06-0.02-0.11-0.06-0.15-0.1c-0.04-0.04-0.08-0.1-0.1-0.15c-0.02-0.06-0.04-0.12-0.04-0.18c0-0.06 0.01-0.12 0.04-0.18c0.02-0.06 0.06-0.11 0.1-0.15c0.04-0.04 0.1-0.08 0.15-0.1c0.06-0.02 0.12-0.04 0.18-0.04h4.71c0.06 0 0.12 0.01 0.18 0.04c0.06 0.02 0.11 0.06 0.15 0.1c0.04 0.04 0.08 0.1 0.1 0.15c0.02 0.06 0.04 0.12 0.04 0.18c0 0.06-0.01 0.12-0.04 0.18c-0.02 0.06-0.06 0.11-0.1 0.15c-0.04 0.04-0.1 0.08-0.15 0.1c-0.06 0.02-0.12 0.04-0.18 0.04h-0.11zm-9.43 0h-4.72c-0.13 0-0.24-0.05-0.33-0.14c-0.09-0.09-0.14-0.21-0.14-0.33c0-0.13 0.05-0.25 0.14-0.33c0.09-0.09 0.21-0.14 0.33-0.14h4.72c0.06 0 0.12 0.01 0.18 0.04c0.06 0.02 0.11 0.06 0.15 0.1c0.04 0.04 0.08 0.1 0.1 0.15c0.02 0.06 0.04 0.12 0.04 0.18c0 0.06-0.01 0.12-0.04 0.18c-0.02 0.06-0.06 0.11-0.1 0.15c-0.04 0.04-0.1 0.08-0.15 0.1c-0.06 0.02-0.12 0.04-0.18 0.04zm-9.44 0h-4.72c-0.13 0-0.24-0.05-0.33-0.14c-0.09-0.09-0.14-0.21-0.14-0.33c0-0.13 0.05-0.25 0.14-0.33c0.09-0.09 0.21-0.14 0.33-0.14h4.72c0.06 0 0.12 0.01 0.18 0.04c0.06 0.02 0.11 0.06 0.15 0.1c0.04 0.04 0.08 0.1 0.1 0.15c0.02 0.06 0.04 0.12 0.04 0.18c0 0.06-0.01 0.12-0.04 0.18c-0.02 0.06-0.06 0.11-0.1 0.15c-0.04 0.04-0.1 0.08-0.15 0.1c-0.06 0.02-0.12 0.04-0.18 0.04zm-9.44 0h-4.72c-0.12 0-0.24-0.05-0.33-0.14c-0.09-0.09-0.14-0.21-0.14-0.33c0-0.13 0.05-0.25 0.14-0.33c0.09-0.09 0.21-0.14 0.33-0.14h4.72c0.06 0 0.12 0.01 0.18 0.04c0.06 0.02 0.11 0.06 0.15 0.1c0.04 0.04 0.08 0.1 0.1 0.15c0.03 0.06 0.04 0.12 0.04 0.18c0 0.06-0.01 0.12-0.04 0.18c-0.02 0.06-0.06 0.11-0.1 0.15c-0.04 0.04-0.1 0.08-0.15 0.1c-0.06 0.02-0.12 0.04-0.18 0.04zm-9.44 0h-4.71c-0.06 0-0.12-0.01-0.18-0.04c-0.06-0.02-0.11-0.06-0.15-0.1c-0.04-0.04-0.08-0.1-0.1-0.15c-0.02-0.06-0.04-0.12-0.04-0.18c0-0.06 0.01-0.12 0.04-0.18c0.02-0.06 0.06-0.11 0.1-0.15c0.04-0.04 0.1-0.08 0.15-0.1c0.06-0.02 0.12-0.04 0.18-0.04h4.71c0.06 0 0.12 0.01 0.18 0.04c0.06 0.02 0.11 0.06 0.15 0.1c0.04 0.04 0.08 0.1 0.1 0.15c0.02 0.06 0.04 0.12 0.04 0.18c0 0.06-0.01 0.12-0.04 0.18c-0.02 0.06-0.06 0.11-0.1 0.15c-0.04 0.04-0.1 0.08-0.15 0.1c-0.06 0.02-0.12 0.04-0.18 0.04zm-9.43 0h-4.72c-0.12 0-0.24-0.05-0.33-0.14c-0.09-0.09-0.14-0.21-0.14-0.33c0-0.13 0.05-0.25 0.14-0.33c0.09-0.09 0.21-0.14 0.33-0.14h4.72c0.06 0 0.12 0.01 0.18 0.04c0.06 0.02 0.11 0.06 0.15 0.1c0.04 0.04 0.08 0.1 0.1 0.15c0.02 0.06 0.04 0.12 0.04 0.18c0 0.06-0.01 0.12-0.04 0.18c-0.02 0.06-0.06 0.11-0.1 0.15c-0.04 0.04-0.1 0.08-0.15 0.1c-0.06 0.02-0.12 0.04-0.18 0.04zm-9.44 0h-4.72c-0.12 0-0.24-0.05-0.33-0.14c-0.09-0.09-0.14-0.21-0.14-0.33c0-0.13 0.05-0.25 0.14-0.33c0.09-0.09 0.21-0.14 0.33-0.14h4.72c0.06 0 0.12 0.01 0.18 0.04c0.06 0.02 0.11 0.06 0.15 0.1c0.04 0.04 0.08 0.1 0.1 0.15c0.02 0.06 0.04 0.12 0.04 0.18c0 0.06-0.01 0.12-0.04 0.18c-0.02 0.06-0.06 0.11-0.1 0.15c-0.04 0.04-0.1 0.08-0.15 0.1c-0.06 0.02-0.12 0.04-0.18 0.04z" />
	<path id="Layer" class="s10" d="m258.21 57.85h-2.36c-0.13 0-0.24-0.05-0.33-0.14c-0.09-0.09-0.14-0.21-0.14-0.33c0-0.13 0.05-0.25 0.14-0.33c0.09-0.09 0.21-0.14 0.33-0.14h2.36c0.12 0 0.24 0.05 0.33 0.14c0.09 0.09 0.14 0.21 0.14 0.33c0 0.13-0.05 0.25-0.14 0.33c-0.09 0.09-0.21 0.14-0.33 0.14z" />
	<path id="Layer" class="s8" d="m159.76 224.04h4.93v154.99h-4.93v-154.99z" />
	<path id="Layer" class="s6" d="m362.87 293.55h-81.42v-11.36h81.42c0.98 0 1.93 0.39 2.62 1.09c0.7 0.7 1.09 1.65 1.09 2.64v3.89c0 0.49-0.1 0.98-0.28 1.43c-0.19 0.45-0.46 0.86-0.8 1.21c-0.34 0.35-0.75 0.62-1.2 0.81c-0.45 0.19-0.93 0.29-1.42 0.29z" />
	<path id="Layer" class="s11" d="m359.74 379.89l-5.9-93.81" />
	<path id="Layer" class="s11" d="m337.15 384.53l-5.9-93.81" />
	<path id="Layer" class="s11" d="m277.94 379.89l5.9-93.81" />
	<path id="Layer" class="s11" d="m300.53 384.53l5.9-93.81" />
	<path id="Layer" class="s12" d="m370.1 286.08h-81.42v-11.36h81.42c0.98 0 1.93 0.39 2.62 1.09c0.7 0.7 1.09 1.65 1.09 2.64v3.89c0 0.99-0.39 1.94-1.09 2.64c-0.7 0.7-1.64 1.09-2.62 1.09z" />
	<path id="Layer" class="s13" d="m370.1 286.08h-81.42v-11.36h81.42c0.98 0 1.93 0.39 2.62 1.09c0.7 0.7 1.09 1.65 1.09 2.64v3.89c0 0.99-0.39 1.94-1.09 2.64c-0.7 0.7-1.64 1.09-2.62 1.09z" />
	<path id="Layer" class="s8" d="m288.1 227.74h4.93v155h-4.93v-155z" />
	<path id="Layer" class="s8" d="m319.87 239.55l-58.29 47.16l2.58 65.88l-16.13 1.84c-7.54-22.24-8.84-90.02-8.84-90.02c9.36-22.76 65.71-24.89 65.71-24.89l14.97 0.02z" />
	<path id="Layer" class="s13" d="m319.87 239.55l-58.29 47.16l2.58 65.88l-16.13 1.84c-7.54-22.24-8.84-90.02-8.84-90.02c9.36-22.76 65.71-24.89 65.71-24.89l14.97 0.02z" />
	<path id="Layer" class="s14" d="m261.49 369.55h-10.07l-0.14-6.75l-0.1-5.29l9.84 0.6l0.19 4.69l0.28 6.75z" />
	<path id="Layer" class="s13" d="m261.21 362.8h-9.93l-0.1-5.29l9.84 0.6l0.19 4.69z" />
	<path id="Layer" class="s6" d="m265.99 359.66l-21.56 0.65l-3.93-8.05l24.89-0.23l0.6 7.62z" />
	<path id="Layer" class="s15" d="m248.84 371.08c0 0 0.52-5.95-1.54-5.12c-2.06 0.83 0.24 3.86 1.54 5.12z" />
	<path id="Layer" class="s15" d="m248.84 371.08c0 0-4.43-3.12-5.56-1.53c-1.13 1.59 5.56 1.53 5.56 1.53z" />
	<path id="Layer" class="s8" d="m252.35 368.2l8 0.08c0.57 0.01 1.1 0.24 1.51 0.63c0.41 0.39 0.66 0.92 0.71 1.49l0.56 7.11c0.03 0.31-0.01 0.62-0.11 0.91c-0.1 0.29-0.26 0.56-0.47 0.79c-0.21 0.23-0.47 0.4-0.75 0.52c-0.29 0.12-0.59 0.18-0.9 0.17c-4.33-0.13-13.24-0.36-16.4-0.27c-4.23 0.12-10.24 0.19-11.1-1.43c-0.24-0.43-0.33-0.94-0.23-1.43c0.09-0.49 0.36-0.93 0.74-1.24c0 0 11.53-1.08 16.83-6.59c0.21-0.23 0.45-0.41 0.73-0.53c0.28-0.13 0.58-0.19 0.88-0.2z" />
	<path id="Layer" class="s8" d="m355.46 239.53c0 0 1.07 13.21 0.67 23.42c-0.46 11.77-25.65 22.13-62.32 16.09c0 0-2.86 19.89-13 38.23c-10.14 18.34-26 45.53-26 45.53l-15.6-10.21c0 0 20.54-57.34 24.45-73.26c3.91-15.91 5.46-23.55 16.64-28.52c11.18-4.97 35.63-11.29 35.63-11.29h39.53z" />
	<path id="Layer" class="s14" d="m248.84 359.81l-1.85 2.86l-4.07 6.31l-7.81-4.58l4.09-6.4l1.59-2.47l8.05 4.29z" />
	<path id="Layer" class="s13" d="m248.84 359.81l-1.85 2.86l-7.79-4.67l1.59-2.47l8.05 4.29z" />
	<path id="Layer" class="s6" d="m254.52 364.69l-19.41-11.28l3.31-8.22l20.45 12.31l-4.35 7.18z" />
	<path id="Layer" class="s15" d="m229.76 364.69c0 0 1.49-5.15-0.18-5.25c-1.67-0.1 0.18 5.25 0.18 5.25z" />
	<path id="Layer" class="s15" d="m229.37 364.5c0 0-2.31-5.59-4.17-4.34c-1.86 1.25 4.17 4.34 4.17 4.34z" />
	<path id="Layer" class="s8" d="m236.12 363.83l6.82 4.02c0.48 0.28 0.83 0.74 0.99 1.28c0.16 0.54 0.11 1.11-0.14 1.61l-3.09 6.31c-0.14 0.27-0.33 0.52-0.56 0.72c-0.24 0.2-0.51 0.34-0.8 0.43c-0.29 0.09-0.6 0.11-0.91 0.07c-0.3-0.04-0.59-0.15-0.86-0.31c-3.67-2.27-11.24-6.93-14-8.43c-3.72-2.01-8.93-4.95-8.86-6.75c0.01-0.49 0.2-0.97 0.53-1.34c0.33-0.37 0.77-0.61 1.26-0.68c0 0 10.48 4.85 17.83 2.84c0.3-0.08 0.61-0.1 0.92-0.07c0.31 0.04 0.6 0.14 0.87 0.3z" />
	<path id="Layer" class="s14" d="m304.79 179.08c4.21 4.07-1.06 22-1.52 30.05c-0.49 8.36-3.89 12.55-14.85 13.74c-10.96 1.19-29.51-2.55-29.51-2.55c-2.36 1.53-7.76 0-7.76 0h-7.42l-2.53-7.39l9.28-2.28l7.42 1.87c11.08 1.53 33-1.7 33-1.7c-0.84-5.94 1.26-29.01 1.26-29.01l12.63-2.73z" />
	<path id="Layer" class="s6" d="m355.19 187.89l0.27 51.64h-50.56l-2.36-39.87l-14.93-6.37c0.93-25.54 17.18-30.8 17.18-30.8c0 0 37.88-9.28 46.06-4.43c8.18 4.85 16.59 26.34 16.59 26.34l-12.25 3.49z" />
	<path id="Layer" class="s8" d="m305.48 120.38c0 0-5-0.63-6.36-4.41c-1.36-3.77 3.86-1.87 3.42-8.69c-0.44-6.82 7.35-8.45 13-5.45c5.65 3 14.62-0.27 18 3.82c3.38 4.09 1.9 7.91 1.9 7.91c0 0 9.72 11.07-2.6 18.62c-12.32 7.56-27.36-11.8-27.36-11.8z" />
	<path id="Layer" class="s14" d="m334.88 157.15c-5.4 8.28-10.26 9.13-16.77 9.12c-7.31 0-4.86-5.22-4.86-5.22c3.06-1.54 5.29-3.19 5.64-6.98c0.07-0.74 0.09-1.48 0.05-2.21c-0.07-1.71-0.36-3.4-0.87-5.03c-10.35 0.95-14-4.13-15.29-13.72c-0.72-5.9 0.34-11.88 3.06-17.15c6 7.1 17.29 1.54 17.29 1.54c-3.17 9.22 4.59 12.53 4.59 12.53c3-1.89 5.4-0.24 5.17 3.43c-0.04 1.02-0.39 2.01-1 2.83c-0.61 0.82-1.45 1.44-2.41 1.78c-0.59 16.35 5.4 19.07 5.4 19.07z" />
	<path id="Layer" class="s8" d="m308.69 136.88c-0.08 0-0.16-0.03-0.22-0.09c-0.06-0.06-0.1-0.13-0.1-0.21c0-0.04 0-0.08 0.02-0.12c0.01-0.04 0.03-0.08 0.06-0.11c0.03-0.03 0.06-0.06 0.1-0.08c0.04-0.02 0.08-0.03 0.12-0.03c3.62-0.19 5-1.94 5.05-1.96c0.03-0.03 0.06-0.06 0.09-0.08c0.04-0.02 0.07-0.03 0.12-0.04c0.04 0 0.08 0 0.12 0.01c0.04 0.01 0.08 0.03 0.11 0.06c0.03 0.03 0.06 0.06 0.08 0.09c0.02 0.04 0.04 0.08 0.04 0.12c0.01 0.04 0 0.08-0.01 0.13c-0.01 0.04-0.03 0.08-0.06 0.11c-0.06 0.08-1.58 2.01-5.51 2.2h-0.02z" />
	<path id="Layer" class="s16" d="m307.01 133.07c-0.56-0.1-1.09-0.34-1.53-0.71l2.62-5.55l0.59 6.11c-0.54 0.2-1.11 0.25-1.68 0.15z" />
	<path id="Layer" class="s8" d="m313.52 125.42c0.44 0 0.79 0.62 0.79 1.39c0 0.76-0.35 1.39-0.79 1.39c-0.44 0-0.79-0.62-0.79-1.39c0-0.76 0.35-1.39 0.79-1.39z" />
	<path id="Layer" class="s8" d="m304.69 125.42c0.44 0 0.79 0.62 0.79 1.39c0 0.76-0.35 1.39-0.79 1.39c-0.44 0-0.79-0.62-0.79-1.39c0-0.76 0.35-1.39 0.79-1.39z" />
	<path id="Layer" class="s8" d="m318 123.74c-0.07 0-0.14-0.01-0.2-0.05c-0.06-0.03-0.11-0.08-0.15-0.14c-0.05-0.08-1.36-1.85-4.4-1.29c-0.06 0.01-0.11 0.01-0.17 0c-0.06-0.01-0.11-0.03-0.16-0.06c-0.05-0.03-0.09-0.07-0.12-0.12c-0.03-0.05-0.05-0.1-0.06-0.16c-0.02-0.11 0.01-0.23 0.07-0.32c0.06-0.09 0.16-0.16 0.27-0.18c3.6-0.66 5.19 1.54 5.26 1.64c0.04 0.06 0.07 0.14 0.07 0.22c0.01 0.08-0.01 0.16-0.05 0.22c-0.04 0.07-0.09 0.13-0.16 0.17c-0.07 0.04-0.14 0.06-0.22 0.06z" />
	<path id="Layer" class="s8" d="m303.35 123.17c-0.07 0-0.14-0.02-0.2-0.05c-0.05-0.03-0.09-0.06-0.13-0.1c-0.04-0.04-0.06-0.09-0.08-0.15c-0.02-0.05-0.02-0.11-0.02-0.17c0-0.06 0.02-0.11 0.05-0.16c0.34-0.57 0.83-1.02 1.43-1.3c0.59-0.28 1.26-0.38 1.9-0.28c0.06 0.01 0.11 0.03 0.16 0.05c0.05 0.03 0.09 0.07 0.12 0.11c0.03 0.04 0.06 0.1 0.07 0.15c0.01 0.05 0.01 0.11 0.01 0.17c-0.01 0.06-0.02 0.11-0.05 0.16c-0.03 0.05-0.07 0.09-0.11 0.12c-0.04 0.03-0.09 0.06-0.15 0.07c-0.05 0.01-0.11 0.02-0.16 0.01c-0.47-0.07-0.96 0-1.4 0.2c-0.44 0.2-0.81 0.52-1.06 0.93c-0.04 0.07-0.09 0.13-0.16 0.17c-0.07 0.04-0.14 0.06-0.22 0.07z" />
	<path id="Layer" fill-rule="evenodd" class="s4" d="m302.67 131.56c-0.94 0-1.85-0.28-2.63-0.81c-0.78-0.52-1.38-1.27-1.74-2.14c-0.36-0.87-0.45-1.83-0.26-2.75c0.18-0.92 0.63-1.77 1.3-2.43c0.66-0.66 1.5-1.12 2.42-1.3c0.92-0.18 1.87-0.09 2.73 0.27c0.86 0.36 1.6 0.97 2.12 1.75c0.52 0.78 0.8 1.7 0.8 2.64c0 0.63-0.12 1.25-0.36 1.82c-0.24 0.58-0.59 1.1-1.03 1.55c-0.44 0.44-0.96 0.79-1.54 1.03c-0.57 0.24-1.19 0.36-1.81 0.36zm0-8.88c-0.81 0-1.6 0.24-2.28 0.7c-0.67 0.45-1.2 1.1-1.51 1.85c-0.31 0.75-0.39 1.58-0.23 2.38c0.16 0.8 0.55 1.54 1.12 2.11c0.57 0.58 1.3 0.97 2.1 1.13c0.8 0.16 1.62 0.08 2.37-0.23c0.75-0.31 1.39-0.84 1.84-1.52c0.45-0.68 0.69-1.48 0.69-2.29c-0.01-1.09-0.45-2.12-1.22-2.88c-0.77-0.76-1.8-1.19-2.88-1.19v-0.05z" />
	<path id="Layer" fill-rule="evenodd" class="s4" d="m314 131.56c-0.94 0-1.85-0.28-2.63-0.8c-0.78-0.52-1.39-1.27-1.74-2.14c-0.36-0.87-0.45-1.83-0.27-2.75c0.18-0.92 0.63-1.77 1.29-2.44c0.66-0.67 1.5-1.12 2.42-1.3c0.92-0.18 1.87-0.09 2.73 0.27c0.86 0.36 1.6 0.97 2.12 1.75c0.52 0.78 0.8 1.7 0.8 2.64c0 1.26-0.5 2.47-1.39 3.36c-0.89 0.89-2.09 1.39-3.34 1.4zm0-8.88c-0.81 0-1.6 0.24-2.28 0.69c-0.67 0.45-1.2 1.1-1.51 1.85c-0.31 0.75-0.39 1.58-0.24 2.38c0.16 0.8 0.55 1.54 1.12 2.11c0.57 0.58 1.3 0.97 2.1 1.13c0.8 0.16 1.62 0.08 2.37-0.23c0.75-0.31 1.39-0.84 1.84-1.52c0.45-0.68 0.69-1.48 0.69-2.29c-0.01-1.08-0.45-2.12-1.22-2.88c-0.76-0.76-1.8-1.19-2.87-1.2v-0.05z" />
	<path id="Layer" class="s17" d="m307.41 126.81h1.82" />
	<path id="Layer" class="s18" d="m318.39 127.68l8.87 2.14" />
	<path id="Layer" class="s13" d="m321.5 145.87c-0.57 2.09-1.43 4.1-2.56 5.95c-0.07-1.71-0.36-3.4-0.87-5.03l3.43-0.92z" />
	<path id="Layer" class="s13" d="m299.98 198.57l2.56-5.28v6.37l-2.56-1.09z" />
	<path id="Layer" class="s13" d="m341.77 192.18l0.55-12.47l1.95 11.46l-2.5 1.02z" />
	<path id="Layer" class="s14" d="m358.22 215.2c-0.12 8.38-3.87 12.55-14.84 13.74c-10.97 1.19-29.51-2.55-29.51-2.55c-2.36 1.53-7.76 0-7.76 0h-7.42l-2.52-7.39l9.27-2.27l7.42 1.86c11.13 1.53 33.05-1.69 33.05-1.69c-0.63-4.45-1.34-18.96-1.64-25.74l13.08-3.89c1.29 8.9 0.98 20.71 0.87 27.94z" />
	<path id="Layer" class="s6" d="m164.82 169.54c0.16-0.62 0.45-1.2 0.85-1.7c0.4-0.49 0.91-0.89 1.49-1.17c0.58-0.27 1.21-0.41 1.84-0.41h75.78c1.01 0 1.99 0.36 2.76 1.01c0.77 0.65 1.29 1.56 1.47 2.56l8 45.38c0.11 0.62 0.09 1.26-0.08 1.87c-0.16 0.61-0.45 1.18-0.86 1.67c-0.4 0.48-0.91 0.88-1.48 1.14c-0.57 0.27-1.19 0.41-1.82 0.41h-74.93c-1 0-1.96-0.35-2.73-0.99c-0.77-0.64-1.3-1.52-1.5-2.5l-8.85-45.38c-0.12-0.63-0.11-1.28 0.05-1.9z" />
	<path id="Layer" class="s13" d="m246.46 166.27c0.53 0 1.04 0.19 1.44 0.53c0.4 0.34 0.68 0.81 0.77 1.34l8.77 49.53c0.06 0.33 0.04 0.66-0.04 0.98c-0.09 0.32-0.24 0.62-0.45 0.87c-0.21 0.25-0.47 0.46-0.77 0.6c-0.3 0.14-0.62 0.21-0.95 0.21l-9.36-54.04h0.59z" />
	<path id="Layer" class="s12" d="m174.83 222.99c0.22-0.53 0.54-1.01 0.94-1.41c0.4-0.4 0.88-0.72 1.4-0.94c0.52-0.22 1.09-0.33 1.65-0.33h106.6c0.57 0 1.13 0.11 1.65 0.33c0.52 0.22 1 0.54 1.4 0.94c0.4 0.4 0.72 0.88 0.93 1.41c0.21 0.53 0.33 1.09 0.33 1.66h-115.24c0-0.57 0.11-1.14 0.33-1.66z" />
	<path id="Layer" class="s13" d="m252 222.99c0.22-0.53 0.54-1.01 0.94-1.41c0.4-0.4 0.88-0.72 1.4-0.94c0.52-0.22 1.09-0.33 1.65-0.33h29.43c0.57 0 1.13 0.11 1.65 0.33c0.52 0.22 1 0.54 1.4 0.94c0.4 0.4 0.72 0.88 0.93 1.41c0.21 0.53 0.33 1.09 0.33 1.66h-38.07c0-0.57 0.11-1.14 0.33-1.66z" />
	<path id="Layer" class="s7" d="m207.48 183.72c3.98-0.57 7.87 3.54 8.67 9.18c0.8 5.64-1.77 10.69-5.75 11.27c-3.98 0.57-7.86-3.54-8.67-9.18c-0.81-5.65 1.77-10.69 5.75-11.27z" />
	<path id="Layer" class="s13" d="m174.83 222.99c0.22-0.53 0.54-1.01 0.94-1.41c0.4-0.4 0.88-0.72 1.4-0.94c0.52-0.22 1.09-0.33 1.65-0.33h106.6c0.57 0 1.13 0.11 1.65 0.33c0.52 0.22 1 0.54 1.4 0.94c0.4 0.4 0.72 0.88 0.93 1.41c0.21 0.53 0.33 1.09 0.33 1.66h-115.24c0-0.57 0.11-1.14 0.33-1.66z" />
	<path id="Layer" class="s8" d="m129.39 225.2c1.34-1.34 3.15-2.1 5.04-2.1h184.75c1.89 0 3.7 0.76 5.03 2.1c1.33 1.34 2.09 3.17 2.09 5.07h-199c0-1.9 0.76-3.72 2.09-5.07z" />
</svg>